
<svg width="32" height="32" viewBox="0 0 32 32" fill="none" xmlns="http://www.w3.org/2000/svg">
<path d="M8.15491 10.1691L19.5536 28.0001C20.9494 27.4289 22.0846 26.6197 22.8011 25.9628L11.2535 7.93188C10.3695 8.35077 9.32735 9.02669 8.15491 10.1691Z" fill="#9065E6"/>
<path d="M5.05627 17.8233C5.05627 19.2323 5.32612 20.5746 5.80068 21.8122H11.3093L5.95887 13.4536C5.38195 14.7959 5.05627 16.2715 5.05627 17.8233Z" fill="#45C4AF"/>
<path d="M21.8798 12.1681L26.2997 19.0702C26.3462 18.6418 26.3834 18.2134 26.3834 17.7754C26.3834 14.8052 25.2203 12.1205 23.3407 10.1499L21.8798 12.1586V12.1681Z" fill="#3FC4FF"/>
<path d="M24.1131 24.5347C24.7831 23.6589 25.3228 22.6688 25.7043 21.6121L14.38 4C13.5053 4.15232 12.2305 4.72352 11.635 5.05672" fill="#FF4DA5"/>
<path d="M12.9936 24.449L12.0537 22.9734H6.3125C7.32675 24.906 8.89001 26.4863 10.7882 27.5049L12.9842 24.449H12.9936Z" fill="#FF8840"/>
</svg>
