<svg xmlns="http://www.w3.org/2000/svg" width="100%" height="100%" viewBox="0 0 160 34" fill="none" preserveAspectRatio="xMidYMid meet" aria-hidden="true" role="img">
<path d="M51.3605 4.40991C51.6827 4.1132 52.089 3.96484 52.5654 3.96484C53.0417 3.96484 53.434 4.1132 53.7423 4.40991C54.0505 4.70661 54.2046 5.08424 54.2046 5.54279V28.2949C54.2046 28.7264 54.0505 29.0906 53.7423 29.4008C53.434 29.711 53.0417 29.8728 52.5654 29.8728C52.089 29.8728 51.6967 29.711 51.3605 29.4008C51.0382 29.0906 50.8701 28.713 50.8701 28.2949V5.54279C50.8701 5.08424 51.0382 4.70661 51.3605 4.40991Z" fill="white"></path>
<path d="M66.3509 27.0943C68.4804 27.0943 70.4839 25.9884 72.3473 23.7631V13.2435C72.3473 12.8119 72.5014 12.4478 72.8097 12.1376C73.1179 11.8274 73.5102 11.6655 73.9866 11.6655C74.4349 11.6655 74.8132 11.8139 75.1354 12.1106C75.4576 12.4073 75.6258 12.7849 75.6258 13.2435V28.2542C75.6258 28.7127 75.4717 29.0904 75.1634 29.414C74.8552 29.7242 74.4629 29.8861 73.9866 29.8861C73.5382 29.8861 73.1599 29.7242 72.8377 29.414C72.5155 29.1038 72.3473 28.7127 72.3473 28.2542V26.8381C71.3666 27.8091 70.526 28.4969 69.8114 28.8881C68.4524 29.6568 67.1354 30.0479 65.8745 30.0479C64.6136 30.0479 63.5768 29.8591 62.7642 29.495C61.9516 29.1308 61.2791 28.6453 60.7467 28.0384C59.6258 26.7572 59.0654 25.1522 59.0654 23.2102V13.2435C59.0654 12.8119 59.2195 12.4478 59.5278 12.1376C59.836 11.8274 60.2283 11.6655 60.7047 11.6655C61.153 11.6655 61.5313 11.8139 61.8535 12.1106C62.1758 12.4073 62.3439 12.7849 62.3439 13.2435V22.819C62.3439 24.1272 62.6521 25.1657 63.2826 25.9345C63.899 26.7032 64.9218 27.0943 66.3509 27.0943Z" fill="white"></path>
<path d="M83.7663 14.7403C85.2515 12.596 87.311 11.517 89.9449 11.49C91.2479 11.49 92.4528 11.8542 93.5456 12.596C94.4283 13.1894 95.1008 14.0256 95.5491 15.0775C96.2356 14.0525 96.8941 13.3377 97.5526 12.9331C98.9116 11.9621 100.467 11.4766 102.218 11.4766C104.18 11.4766 105.707 12.2048 106.842 13.6614C107.822 14.8887 108.313 16.3992 108.313 18.1929V28.281C108.313 28.7126 108.159 29.0767 107.85 29.3869C107.542 29.6971 107.15 29.859 106.673 29.859C106.225 29.859 105.847 29.6971 105.525 29.3869C105.202 29.0767 105.034 28.6991 105.034 28.281V18.8268C105.034 17.3433 104.754 16.2374 104.208 15.5091C103.661 14.7808 102.708 14.4167 101.349 14.4167C99.2199 14.4167 97.4545 15.5495 96.0675 17.7883V28.2675C96.0675 28.6991 95.9134 29.0632 95.6052 29.3734C95.2969 29.6836 94.9046 29.8455 94.4283 29.8455C93.98 29.8455 93.6017 29.6836 93.2794 29.3734C92.9572 29.0632 92.7891 28.6856 92.7891 28.2675V18.8133C92.7891 17.3298 92.5089 16.2239 91.9625 15.4956C91.416 14.7673 90.4633 14.4032 89.1043 14.4032C86.9747 14.4032 85.2094 15.5361 83.8224 17.7749V28.254C83.8224 28.6856 83.6543 29.0497 83.332 29.3599C83.0098 29.6701 82.6175 29.832 82.1832 29.832C81.7488 29.832 81.3565 29.6701 81.0343 29.3599C80.7121 29.0497 80.5439 28.6721 80.5439 28.254V13.2433C80.5439 12.8117 80.6981 12.4341 81.0063 12.1104C81.3145 11.7868 81.7068 11.6249 82.1832 11.6249C82.6315 11.6249 83.0098 11.7868 83.332 12.097C83.6543 12.4071 83.8224 12.7983 83.8224 13.2568V14.7134L83.7663 14.7403Z" fill="white"></path>
<path d="M116.621 6.39247C116.621 6.90496 116.439 7.33654 116.088 7.6737C115.738 8.01087 115.29 8.1862 114.757 8.1862H114.533C114.001 8.1862 113.567 8.01087 113.216 7.6737C112.88 7.33654 112.712 6.90496 112.712 6.39247V6.2576C112.712 5.7451 112.894 5.31353 113.244 4.97636C113.595 4.63919 114.029 4.46387 114.533 4.46387H114.757C115.29 4.46387 115.738 4.63919 116.088 4.97636C116.439 5.31353 116.621 5.7451 116.621 6.2576V6.39247ZM113.468 12.0973C113.791 11.8006 114.197 11.6523 114.673 11.6523C115.15 11.6523 115.528 11.8006 115.822 12.0973C116.116 12.3941 116.271 12.7852 116.271 13.2707V28.2814C116.271 28.713 116.116 29.0771 115.822 29.3873C115.528 29.6975 115.136 29.8593 114.673 29.8593C114.211 29.8593 113.805 29.6975 113.468 29.3873C113.146 29.0771 112.978 28.6995 112.978 28.2814V13.2707C112.978 12.7852 113.146 12.3941 113.468 12.0973Z" fill="white"></path>
<path d="M130.492 14.4305C128.362 14.4305 126.359 15.5633 124.495 17.8021V28.2813C124.495 28.7129 124.327 29.077 124.005 29.3872C123.683 29.6974 123.29 29.8593 122.856 29.8593C122.422 29.8593 122.029 29.6974 121.707 29.3872C121.385 29.077 121.217 28.6994 121.217 28.2813V13.2706C121.217 12.8121 121.371 12.4344 121.679 12.1107C121.987 11.8005 122.38 11.6387 122.856 11.6387C123.304 11.6387 123.683 11.7871 124.005 12.0838C124.327 12.3805 124.495 12.7716 124.495 13.2571V14.7137C125.476 13.7426 126.317 13.0413 127.031 12.6232C128.39 11.8545 129.707 11.4634 130.968 11.4634C132.229 11.4634 133.252 11.6387 134.05 12.0028C134.849 12.3535 135.535 12.866 136.096 13.5268C137.217 14.8081 137.777 16.3995 137.777 18.3146V28.2813C137.777 28.7129 137.609 29.077 137.287 29.3872C136.965 29.6974 136.572 29.8593 136.138 29.8593C135.704 29.8593 135.311 29.6974 134.989 29.3872C134.667 29.077 134.499 28.6994 134.499 28.2813V18.6653C134.499 17.3571 134.19 16.3186 133.56 15.5633C132.944 14.8081 131.921 14.4305 130.492 14.4305Z" fill="white"></path>
<path d="M150.709 11.4902C153.525 11.4902 155.781 12.3399 157.504 14.0527C159.227 15.7925 160.054 18.0313 159.998 20.7691C159.998 23.5339 159.171 25.7727 157.504 27.4855C155.781 29.1983 153.525 30.0479 150.709 30.0479C147.893 30.0479 145.609 29.1983 143.956 27.4855C142.233 25.7727 141.378 23.5339 141.378 20.7691C141.378 18.0043 142.233 15.7385 143.956 14.0527C145.609 12.3399 147.865 11.4902 150.709 11.4902ZM146.646 25.7052C147.22 26.2042 147.879 26.5684 148.607 26.7977C149.336 27.0269 150.036 27.1348 150.723 27.1348C151.409 27.1348 152.096 27.0269 152.81 26.7977C153.525 26.5684 154.169 26.2042 154.772 25.6917C156.075 24.5454 156.719 22.9 156.719 20.7286C156.719 18.5573 156.075 16.9793 154.772 15.806C153.679 14.8349 152.334 14.3629 150.723 14.3899C148.089 14.3899 146.268 15.5362 145.259 17.8155C144.909 18.6382 144.726 19.6227 144.726 20.7691C144.726 21.9155 144.909 22.8865 145.259 23.7227C145.609 24.5454 146.085 25.2062 146.66 25.7052H146.646Z" fill="white"></path>
<path d="M4.66504 8.73969L21.8278 34.0003C23.9294 33.1911 25.6387 32.0447 26.7175 31.1141L9.33052 5.57031C7.99952 6.16373 6.43035 7.12128 4.66504 8.73969Z" fill="#9065E6"></path>
<path d="M0 19.583C0 21.579 0.406303 23.4806 1.12084 25.2339H9.41502L1.35901 13.3926C0.490366 15.2942 0 17.3846 0 19.583Z" fill="#45C4AF"></path>
<path d="M25.3311 11.5716L31.986 21.3495C32.0561 20.7425 32.1121 20.1356 32.1121 19.5153C32.1121 15.3074 30.3608 11.5042 27.5307 8.7124L25.3311 11.5581V11.5716Z" fill="#3FC4FF"></path>
<path d="M28.6933 29.0908C29.702 27.8501 30.5146 26.4474 31.0891 24.9504L14.0384 0C12.7214 0.215787 10.8019 1.02499 9.90527 1.49703" fill="#FF4DA5"></path>
<path d="M11.9511 28.9693L10.536 26.8789H1.8916C3.41874 29.6167 5.77249 31.8555 8.63062 33.2986L11.9371 28.9693H11.9511Z" fill="#FF8840"></path>
</svg>
