<svg xmlns="http://www.w3.org/2000/svg" width="100%" height="100%" viewBox="0 0 160 34" fill="none" preserveAspectRatio="xMidYMid meet" aria-hidden="true" role="img">
<path d="M51.3605 4.41015C51.6827 4.11344 52.089 3.96509 52.5654 3.96509C53.0417 3.96509 53.434 4.11344 53.7423 4.41015C54.0505 4.70686 54.2046 5.08448 54.2046 5.54303V28.2951C54.2046 28.7267 54.0505 29.0908 53.7423 29.401C53.434 29.7112 53.0417 29.8731 52.5654 29.8731C52.089 29.8731 51.6967 29.7112 51.3605 29.401C51.0382 29.0908 50.8701 28.7132 50.8701 28.2951V5.54303C50.8701 5.08448 51.0382 4.70686 51.3605 4.41015Z" fill="#46149F"></path>
<path d="M66.3509 27.0946C68.4804 27.0946 70.4839 25.9887 72.3473 23.7634V13.2437C72.3473 12.8121 72.5014 12.448 72.8097 12.1378C73.1179 11.8276 73.5102 11.6658 73.9866 11.6658C74.4349 11.6658 74.8132 11.8141 75.1354 12.1108C75.4576 12.4075 75.6258 12.7852 75.6258 13.2437V28.2544C75.6258 28.713 75.4717 29.0906 75.1634 29.4143C74.8552 29.7245 74.4629 29.8863 73.9866 29.8863C73.5382 29.8863 73.1599 29.7245 72.8377 29.4143C72.5155 29.1041 72.3473 28.713 72.3473 28.2544V26.8383C71.3666 27.8094 70.526 28.4972 69.8114 28.8883C68.4524 29.657 67.1354 30.0482 65.8745 30.0482C64.6136 30.0482 63.5768 29.8593 62.7642 29.4952C61.9516 29.1311 61.2791 28.6455 60.7467 28.0386C59.6258 26.7574 59.0654 25.1525 59.0654 23.2104V13.2437C59.0654 12.8121 59.2195 12.448 59.5278 12.1378C59.836 11.8276 60.2283 11.6658 60.7047 11.6658C61.153 11.6658 61.5313 11.8141 61.8535 12.1108C62.1758 12.4075 62.3439 12.7852 62.3439 13.2437V22.8193C62.3439 24.1275 62.6521 25.166 63.2826 25.9347C63.899 26.7035 64.9218 27.0946 66.3509 27.0946Z" fill="#46149F"></path>
<path d="M83.7663 14.7408C85.2515 12.5964 87.311 11.5175 89.9449 11.4905C91.2479 11.4905 92.4528 11.8547 93.5456 12.5964C94.4283 13.1899 95.1008 14.026 95.5491 15.078C96.2356 14.053 96.8941 13.3382 97.5526 12.9336C98.9116 11.9626 100.467 11.4771 102.218 11.4771C104.18 11.4771 105.707 12.2053 106.842 13.6619C107.822 14.8892 108.313 16.3997 108.313 18.1934V28.2815C108.313 28.7131 108.159 29.0772 107.85 29.3874C107.542 29.6976 107.15 29.8594 106.673 29.8594C106.225 29.8594 105.847 29.6976 105.525 29.3874C105.202 29.0772 105.034 28.6996 105.034 28.2815V18.8273C105.034 17.3438 104.754 16.2379 104.208 15.5096C103.661 14.7813 102.708 14.4172 101.349 14.4172C99.2199 14.4172 97.4545 15.55 96.0675 17.7888V28.268C96.0675 28.6996 95.9134 29.0637 95.6052 29.3739C95.2969 29.6841 94.9046 29.846 94.4283 29.846C93.98 29.846 93.6017 29.6841 93.2794 29.3739C92.9572 29.0637 92.7891 28.6861 92.7891 28.268V18.8138C92.7891 17.3303 92.5089 16.2244 91.9625 15.4961C91.416 14.7678 90.4633 14.4037 89.1043 14.4037C86.9747 14.4037 85.2094 15.5366 83.8224 17.7753V28.2545C83.8224 28.6861 83.6543 29.0502 83.332 29.3604C83.0098 29.6706 82.6175 29.8325 82.1832 29.8325C81.7488 29.8325 81.3565 29.6706 81.0343 29.3604C80.7121 29.0502 80.5439 28.6726 80.5439 28.2545V13.2438C80.5439 12.8122 80.6981 12.4346 81.0063 12.1109C81.3145 11.7872 81.7068 11.6254 82.1832 11.6254C82.6315 11.6254 83.0098 11.7872 83.332 12.0974C83.6543 12.4076 83.8224 12.7987 83.8224 13.2573V14.7139L83.7663 14.7408Z" fill="#46149F"></path>
<path d="M116.621 6.39259C116.621 6.90508 116.439 7.33666 116.088 7.67383C115.738 8.01099 115.29 8.18632 114.757 8.18632H114.533C114.001 8.18632 113.567 8.01099 113.216 7.67383C112.88 7.33666 112.712 6.90508 112.712 6.39259V6.25772C112.712 5.74523 112.894 5.31365 113.244 4.97648C113.595 4.63932 114.029 4.46399 114.533 4.46399H114.757C115.29 4.46399 115.738 4.63932 116.088 4.97648C116.439 5.31365 116.621 5.74523 116.621 6.25772V6.39259ZM113.468 12.0975C113.791 11.8008 114.197 11.6524 114.673 11.6524C115.15 11.6524 115.528 11.8008 115.822 12.0975C116.116 12.3942 116.271 12.7853 116.271 13.2708V28.2815C116.271 28.7131 116.116 29.0772 115.822 29.3874C115.528 29.6976 115.136 29.8595 114.673 29.8595C114.211 29.8595 113.805 29.6976 113.468 29.3874C113.146 29.0772 112.978 28.6996 112.978 28.2815V13.2708C112.978 12.7853 113.146 12.3942 113.468 12.0975Z" fill="#46149F"></path>
<path d="M130.492 14.4306C128.362 14.4306 126.359 15.5635 124.495 17.8023V28.2814C124.495 28.713 124.327 29.0772 124.005 29.3873C123.683 29.6975 123.29 29.8594 122.856 29.8594C122.422 29.8594 122.029 29.6975 121.707 29.3873C121.385 29.0772 121.217 28.6995 121.217 28.2814V13.2707C121.217 12.8122 121.371 12.4345 121.679 12.1109C121.987 11.8007 122.38 11.6388 122.856 11.6388C123.304 11.6388 123.683 11.7872 124.005 12.0839C124.327 12.3806 124.495 12.7717 124.495 13.2572V14.7138C125.476 13.7428 126.317 13.0414 127.031 12.6234C128.39 11.8546 129.707 11.4635 130.968 11.4635C132.229 11.4635 133.252 11.6388 134.05 12.003C134.849 12.3536 135.535 12.8661 136.096 13.527C137.217 14.8082 137.777 16.3996 137.777 18.3148V28.2814C137.777 28.713 137.609 29.0772 137.287 29.3873C136.965 29.6975 136.572 29.8594 136.138 29.8594C135.704 29.8594 135.311 29.6975 134.989 29.3873C134.667 29.0772 134.499 28.6995 134.499 28.2814V18.6654C134.499 17.3572 134.19 16.3187 133.56 15.5635C132.944 14.8082 131.921 14.4306 130.492 14.4306Z" fill="#46149F"></path>
<path d="M150.709 11.4905C153.525 11.4905 155.781 12.3401 157.504 14.053C159.227 15.7927 160.054 18.0315 159.998 20.7693C159.998 23.5341 159.171 25.7729 157.504 27.4857C155.781 29.1985 153.525 30.0482 150.709 30.0482C147.893 30.0482 145.609 29.1985 143.956 27.4857C142.233 25.7729 141.378 23.5341 141.378 20.7693C141.378 18.0046 142.233 15.7388 143.956 14.053C145.609 12.3401 147.865 11.4905 150.709 11.4905ZM146.646 25.7055C147.22 26.2045 147.879 26.5686 148.607 26.7979C149.336 27.0272 150.036 27.1351 150.723 27.1351C151.409 27.1351 152.096 27.0272 152.81 26.7979C153.525 26.5686 154.169 26.2045 154.772 25.692C156.075 24.5456 156.719 22.9002 156.719 20.7289C156.719 18.5575 156.075 16.9796 154.772 15.8062C153.679 14.8352 152.334 14.3631 150.723 14.3901C148.089 14.3901 146.268 15.5365 145.259 17.8157C144.909 18.6384 144.726 19.623 144.726 20.7693C144.726 21.9157 144.909 22.8867 145.259 23.7229C145.609 24.5456 146.085 25.2065 146.66 25.7055H146.646Z" fill="#46149F"></path>
<path d="M4.66504 8.73945L21.8278 34.0001C23.9294 33.1908 25.6387 32.0445 26.7175 31.1139L9.33052 5.57007C7.99952 6.16348 6.43035 7.12104 4.66504 8.73945Z" fill="#9065E6"></path>
<path d="M0 19.5829C0 21.5789 0.406303 23.4805 1.12084 25.2338H9.41502L1.35901 13.3925C0.490366 15.2941 0 17.3845 0 19.5829Z" fill="#45C4AF"></path>
<path d="M25.3311 11.5717L31.986 21.3496C32.0561 20.7427 32.1121 20.1358 32.1121 19.5154C32.1121 15.3075 30.3608 11.5043 27.5307 8.71252L25.3311 11.5582V11.5717Z" fill="#3FC4FF"></path>
<path d="M28.6933 29.0908C29.702 27.8501 30.5146 26.4474 31.0891 24.9504L14.0384 0C12.7214 0.215787 10.8019 1.02499 9.90527 1.49703" fill="#FF4DA5"></path>
<path d="M11.9511 28.9695L10.536 26.879H1.8916C3.41874 29.6168 5.77249 31.8556 8.63062 33.2987L11.9371 28.9695H11.9511Z" fill="#FF8840"></path>
</svg>
